<?xml version="1.0"?>
<svg version="1.1" xmlns="http://www.w3.org/2000/svg" width="400px" height="200px" style=""><path fill="#212324" d="M150.04,115.84c0,0.24-0.18,0.36-0.45,0.36l-2.73,0c-0.54,0-0.9-0.15-1.17-0.6l-4.32-7.05l-2.31,0l0,6.9c0,0.45-0.18,0.75-0.69,0.75l-2.46,0c-0.51,0-0.72-0.24-0.72-0.75l0-19.14c0-0.66,0.15-0.87,0.81-0.87l4.44,0c2.61,0,5.37,0.39,6.96,2.22c0.96,1.11,1.44,2.58,1.44,4.2c0,2.76-1.47,4.92-3.87,5.97l4.92,7.59c0.09,0.15,0.15,0.3,0.15,0.42z M144.91,101.92c0-2.61-1.74-3.54-4.35-3.54l-1.5,0l0,7.26l1.86,0c2.4,0,3.99-1.29,3.99-3.72z M162.805,97.33c0,0.48-0.21,0.63-0.63,0.63l-1.71,0l0,15.72l1.62,0c0.42,0,0.63,0.27,0.63,0.63l0,1.29c0,0.36-0.15,0.6-0.54,0.6l-7.14,0c-0.39,0-0.6-0.24-0.6-0.57l0-1.35c0-0.42,0.18-0.6,0.6-0.6l1.59,0l0-15.72l-1.74,0c-0.42,0-0.6-0.21-0.6-0.6l0-1.32c0-0.33,0.18-0.6,0.54-0.6l7.35,0c0.42,0,0.63,0.27,0.63,0.57l0,1.32z M185.44,115.72c0,0.3-0.15,0.48-0.54,0.48l-2.67,0c-0.63,0-0.84-0.24-1.02-0.72l-1.56-4.41l-7.59,0l-1.56,4.5c-0.12,0.39-0.33,0.63-0.81,0.63l-2.67,0c-0.3,0-0.42-0.15-0.42-0.39c0-0.09,0-0.21,0.06-0.33l7.32-19.44c0.15-0.36,0.36-0.6,0.81-0.6l2.4,0c0.45,0,0.72,0.21,0.84,0.54l7.35,19.35c0.06,0.15,0.06,0.27,0.06,0.39z M178.63,108.16l-2.13-6.33c-0.27-0.84-0.45-1.47-0.6-1.95l-0.06,0c-0.15,0.51-0.33,1.14-0.63,1.98l-2.13,6.3l5.55,0z M202.465,110.14c0,4.17-3.39,6.42-7.29,6.42c-1.8,0-3.93-0.33-5.73-0.96c-0.39-0.15-0.51-0.33-0.51-0.57c0-0.12,0-0.24,0.06-0.39l0.63-1.95c0.09-0.3,0.24-0.48,0.54-0.48c0.12,0,0.27,0.03,0.45,0.09c1.41,0.51,2.97,0.9,4.47,0.9c1.62,0,3.45-0.78,3.45-2.67c0-1.38-1.02-2.13-2.19-2.7l-3.9-1.95c-2.13-1.05-3.54-2.82-3.54-5.16c0-3.66,3.6-5.67,6.93-5.67c1.98,0,3.63,0.3,5.37,1.05c0.39,0.18,0.6,0.36,0.6,0.6c0,0.12-0.03,0.24-0.09,0.39l-0.72,1.83c-0.12,0.33-0.3,0.45-0.51,0.45c-0.15,0-0.3-0.06-0.48-0.12c-1.23-0.51-2.76-0.93-3.96-0.93c-1.41,0-3.03,0.6-3.03,2.28c0,1.23,1.14,1.95,2.13,2.43l3.33,1.62c2.37,1.14,3.99,2.73,3.99,5.49z"/><path fill="#" d=""/></svg>
