<?xml version="1.0" standalone="no"?>
<!DOCTYPE svg PUBLIC "-//W3C//DTD SVG 20010904//EN"
 "http://www.w3.org/TR/2001/REC-SVG-20010904/DTD/svg10.dtd">
<svg version="1.0" xmlns="http://www.w3.org/2000/svg"
 width="300.000000pt" height="211.000000pt" viewBox="0 0 300.000000 211.000000"
 preserveAspectRatio="xMidYMid meet">
<metadata>
Created by potrace 1.10, written by Peter Selinger 2001-2011
</metadata>
<g transform="translate(0.000000,211.000000) scale(0.100000,-0.100000)"
fill="#000000" stroke="none">
<path d="M1223 1686 l-142 -81 0 -175 -1 -175 132 -75 c72 -41 135 -76 140
-78 4 -2 8 30 8 72 l0 76 -75 42 -74 43 0 95 -1 95 135 75 c75 41 143 80 151
86 14 9 6 17 -50 47 -37 21 -70 37 -74 36 -4 -1 -71 -38 -149 -83z m191 15 c7
-10 -18 -31 -66 -56 -21 -11 -38 -23 -38 -26 0 -4 -13 -10 -29 -14 -16 -3 -45
-22 -65 -42 l-36 -36 0 -99 c0 -95 1 -100 28 -124 15 -15 40 -33 57 -41 16 -9
35 -21 42 -29 14 -14 18 -50 5 -58 -10 -6 -171 87 -183 105 -5 8 -9 77 -9 155
0 122 2 143 18 157 9 8 22 16 27 17 11 2 83 42 135 75 61 39 73 44 92 34 9 -5
19 -13 22 -18z"/>
<path d="M1490 1634 c-30 -19 -56 -38 -57 -42 -2 -4 21 -20 51 -36 l53 -29 58
33 c45 26 57 29 52 16 -4 -10 -7 -78 -7 -152 0 -134 0 -135 -27 -160 -37 -34
-41 -22 -44 129 -2 116 -11 160 -24 125 -3 -8 -4 -86 -3 -175 l3 -161 62 36
63 37 0 175 0 175 -59 33 c-32 17 -60 32 -62 31 -2 -1 -29 -16 -59 -35z m84
-20 c22 -9 20 -31 -5 -44 -16 -9 -25 -8 -40 6 -31 28 1 55 45 38z"/>
<path d="M1328 1537 c-32 -18 -58 -35 -58 -39 0 -4 24 -19 53 -35 l52 -28 3
-173 c1 -96 6 -172 10 -170 4 2 33 19 65 38 l57 35 0 172 0 172 -54 30 c-29
17 -57 31 -62 31 -5 -1 -35 -15 -66 -33z m98 -26 c23 -18 24 -20 5 -26 -44
-14 -62 -14 -68 0 -3 8 -10 12 -16 8 -6 -4 -7 -1 -3 6 7 10 37 27 54 30 2 1
15 -8 28 -18z m61 -163 c0 -130 -1 -145 -20 -165 -11 -13 -29 -23 -39 -23 -16
0 -18 11 -18 128 0 79 -4 132 -11 139 -8 8 1 18 33 37 23 14 46 26 49 26 4 0
6 -64 6 -142z"/>
<path d="M552 1008 c-9 -9 -12 -73 -12 -225 l0 -213 40 0 40 0 0 185 0 186
143 -3 142 -3 3 -41 c2 -29 -3 -47 -18 -67 -21 -26 -24 -27 -131 -27 l-109 0
0 -45 c0 -44 1 -44 29 -39 25 5 39 -3 112 -69 83 -73 85 -74 147 -79 34 -2 62
-1 62 3 0 4 -36 35 -80 70 -43 35 -79 67 -80 72 0 4 10 7 23 7 33 0 84 35 104
72 11 22 17 56 18 101 0 65 -2 70 -33 98 l-32 29 -178 0 c-125 0 -182 -4 -190
-12z m278 -267 c-5 -11 -10 -31 -10 -46 l0 -26 -22 22 c-13 11 -33 28 -45 36
-33 22 -19 33 38 33 46 0 49 -1 39 -19z"/>
<path d="M1070 795 l0 -225 40 0 40 0 0 225 0 225 -40 0 -40 0 0 -225z"/>
<path d="M1402 1010 c-54 -13 -109 -58 -137 -113 -23 -47 -25 -61 -25 -189 l0
-138 40 0 40 0 0 55 0 55 146 0 146 0 -4 -55 -3 -55 43 0 42 0 0 209 c0 177
-2 212 -16 225 -12 13 -38 16 -127 15 -62 -1 -127 -5 -145 -9z m208 -160 l0
-90 -146 0 -147 0 5 50 c4 38 12 58 34 81 36 38 69 47 172 48 l82 1 0 -90z
m-280 -131 c0 -4 -11 -14 -24 -22 -23 -16 -24 -15 -28 12 -7 44 1 53 27 33 14
-9 25 -20 25 -23z m320 1 c0 -37 -2 -40 -19 -30 -30 16 -35 30 -15 51 26 28
34 23 34 -21z"/>
<path d="M1844 1006 c-17 -8 -41 -27 -53 -42 -19 -24 -22 -38 -19 -86 7 -102
51 -128 221 -128 122 0 137 -6 137 -50 0 -47 -12 -50 -192 -50 l-168 0 0 -40
0 -40 171 0 c191 0 221 7 253 61 21 36 23 97 4 136 -26 53 -70 68 -204 69 -66
0 -126 4 -132 8 -7 4 -12 23 -12 41 0 51 19 57 180 53 l138 -3 4 43 3 42 -150
0 c-103 -1 -160 -5 -181 -14z"/>
</g>
</svg>
