<svg width="24" height="24" viewBox="0 0 24 24" fill="none" xmlns="http://www.w3.org/2000/svg">
  <path d="M12 2C6.477 2 2 6.477 2 12s4.477 10 10 10 10-4.477 10-10S17.523 2 12 2zm0 18c-4.418 0-8-3.582-8-8s3.582-8 8-8 8 3.582 8 8-3.582 8-8 8z" fill="#FFFFFF"/>
  <path d="M12 16.5a4.5 4.5 0 1 1 0-9 4.5 4.5 0 0 1 0 9zm0-7.5a3 3 0 1 0 0 6 3 3 0 0 0 0-6z" fill="#FFFFFF"/>
  <path d="M18.707 16.707l-3.5-3.5a1 1 0 0 0-1.414 1.414L17.293 18.12a1 1 0 0 0 1.414-1.414zM7.293 7.293a1 1 0 0 0 1.414 1.414l3.5-3.5a1 1 0 0 0-1.414-1.414l-3.5 3.5z" fill="#FFFFFF"/>
</svg>
    